<svg width="306" height="325" viewBox="0 0 306 325" fill="none" xmlns="http://www.w3.org/2000/svg">
<path fill-rule="evenodd" clip-rule="evenodd" d="M287.878 26C287.606 26 287.385 26.2338 287.385 26.5222V34.1396L282.298 28.7534C282.105 28.5494 281.793 28.5494 281.6 28.7534C281.408 28.9573 281.408 29.288 281.6 29.492L286.687 34.8781H279.493C279.221 34.8781 279 35.1119 279 35.4004C279 35.6888 279.221 35.9226 279.493 35.9226H286.687L281.6 41.3088C281.408 41.5128 281.408 41.8434 281.6 42.0474C281.793 42.2513 282.105 42.2513 282.298 42.0474L287.385 36.6611V44.2785C287.385 44.5669 287.606 44.8007 287.878 44.8007C288.151 44.8007 288.371 44.5669 288.371 44.2785V36.6612L293.458 42.0475C293.651 42.2514 293.963 42.2514 294.156 42.0475C294.349 41.8436 294.349 41.5129 294.156 41.3089L289.069 35.9226H296.263C296.535 35.9226 296.756 35.6888 296.756 35.4004C296.756 35.1119 296.535 34.8781 296.263 34.8781H289.069L294.156 29.4918C294.348 29.2879 294.348 28.9572 294.156 28.7533C293.963 28.5493 293.651 28.5493 293.458 28.7533L288.371 34.1395V26.5222C288.371 26.2338 288.151 26 287.878 26Z" fill="#CAB7FF"/>
<path fill-rule="evenodd" clip-rule="evenodd" d="M269.878 292C269.606 292 269.385 292.234 269.385 292.522V300.14L264.298 294.753C264.105 294.549 263.793 294.549 263.6 294.753C263.408 294.957 263.408 295.288 263.6 295.492L268.687 300.878H261.493C261.221 300.878 261 301.112 261 301.4C261 301.689 261.221 301.923 261.493 301.923H268.687L263.6 307.309C263.408 307.513 263.408 307.843 263.6 308.047C263.793 308.251 264.105 308.251 264.298 308.047L269.385 302.661V310.278C269.385 310.567 269.606 310.801 269.878 310.801C270.151 310.801 270.371 310.567 270.371 310.278V302.661L275.458 308.048C275.651 308.251 275.963 308.251 276.156 308.048C276.349 307.844 276.349 307.513 276.156 307.309L271.069 301.923H278.263C278.535 301.923 278.756 301.689 278.756 301.4C278.756 301.112 278.535 300.878 278.263 300.878H271.069L276.156 295.492C276.348 295.288 276.348 294.957 276.156 294.753C275.963 294.549 275.651 294.549 275.458 294.753L270.371 300.14V292.522C270.371 292.234 270.151 292 269.878 292Z" fill="#62CFF1"/>
<path fill-rule="evenodd" clip-rule="evenodd" d="M233.878 0C233.606 0 233.385 0.233816 233.385 0.522242V8.13963L228.298 2.75339C228.105 2.54945 227.793 2.54945 227.6 2.75339C227.408 2.95734 227.408 3.28801 227.6 3.49195L232.687 8.87811H225.493C225.221 8.87811 225 9.11193 225 9.40035C225 9.68878 225.221 9.92259 225.493 9.92259H232.687L227.6 15.3088C227.408 15.5128 227.408 15.8434 227.6 16.0474C227.793 16.2513 228.105 16.2513 228.298 16.0474L233.385 10.6611V18.2785C233.385 18.5669 233.606 18.8007 233.878 18.8007C234.151 18.8007 234.371 18.5669 234.371 18.2785V10.6612L239.458 16.0475C239.651 16.2514 239.963 16.2514 240.156 16.0475C240.349 15.8436 240.349 15.5129 240.156 15.3089L235.069 9.9226H242.263C242.535 9.9226 242.756 9.68878 242.756 9.40035C242.756 9.11193 242.535 8.87811 242.263 8.87811H235.069L240.156 3.49185C240.348 3.2879 240.348 2.95723 240.156 2.75328C239.963 2.54934 239.651 2.54934 239.458 2.75328L234.371 8.1395V0.522242C234.371 0.233816 234.151 0 233.878 0Z" fill="#FFD84C"/>
<rect x="182.734" y="65.9941" width="149.445" height="211.545" rx="10" transform="rotate(35 182.734 65.9941)" fill="#CAB7FF"/>
<rect x="157.717" y="55.3877" width="149.445" height="211.545" rx="10" transform="rotate(29 157.717 55.3877)" fill="#62CFF1"/>
<rect x="132.105" y="47.9114" width="149.445" height="211.545" rx="10" transform="rotate(23 132.105 47.9114)" fill="#26C58C"/>
<rect x="106.736" y="39.7802" width="149.445" height="211.545" rx="10" transform="rotate(17.6675 106.736 39.7802)" fill="#FFD84C"/>
<rect x="78.7578" y="37.3181" width="149.445" height="211.545" rx="10" transform="rotate(11.8694 78.7578 37.3181)" fill="#FF8C4C"/>
<rect x="47.8213" y="35.1632" width="149.445" height="211.545" rx="10" transform="rotate(5.68715 47.8213 35.1632)" fill="#FFB7D5"/>
<g filter="url(#filter0_d)">
<rect x="16.0813" y="35" width="149.445" height="211.545" rx="10" transform="rotate(0.0220001 16.0813 35)" fill="white"/>
</g>
<defs>
<filter id="filter0_d" x="0" y="19" width="181.526" height="243.603" filterUnits="userSpaceOnUse" color-interpolation-filters="sRGB">
<feFlood flood-opacity="0" result="BackgroundImageFix"/>
<feColorMatrix in="SourceAlpha" type="matrix" values="0 0 0 0 0 0 0 0 0 0 0 0 0 0 0 0 0 0 127 0"/>
<feMorphology radius="2" operator="dilate" in="SourceAlpha" result="effect1_dropShadow"/>
<feOffset/>
<feGaussianBlur stdDeviation="7"/>
<feColorMatrix type="matrix" values="0 0 0 0 0 0 0 0 0 0 0 0 0 0 0 0 0 0 0.1 0"/>
<feBlend mode="normal" in2="BackgroundImageFix" result="effect1_dropShadow"/>
<feBlend mode="normal" in="SourceGraphic" in2="effect1_dropShadow" result="shape"/>
</filter>
</defs>
</svg>
