<svg width="241" height="265" viewBox="0 0 241 265" fill="none" xmlns="http://www.w3.org/2000/svg">
<path d="M82.2697 40.3344C90.0848 37.3546 98.2051 42.6403 99.9721 50.8155C103.68 67.9694 110.252 98.3724 117.74 133.018C125.229 167.665 131.801 198.068 135.509 215.221C137.276 223.397 132.063 231.564 123.715 232.078C75.615 235.039 31.2485 202.532 20.7544 153.982C10.2603 105.432 37.2406 57.5033 82.2697 40.3344Z" fill="#FFB7D5"/>
<path d="M66.3172 145.287C66.3172 147.378 64.6221 149.073 62.5312 149.073C60.4402 149.073 58.7451 147.378 58.7451 145.287C58.7451 143.196 60.4402 141.501 62.5312 141.501C64.6221 141.501 66.3172 143.196 66.3172 145.287Z" fill="#0C0C0C"/>
<path d="M102.014 145.287C102.014 147.378 100.319 149.073 98.2279 149.073C96.137 149.073 94.4419 147.378 94.4419 145.287C94.4419 143.196 96.137 141.501 98.2279 141.501C100.319 141.501 102.014 143.196 102.014 145.287Z" fill="#0C0C0C"/>
<path fill-rule="evenodd" clip-rule="evenodd" d="M76.0992 151.855C76.9527 151.582 77.866 152.052 78.1391 152.906C78.2955 153.394 79.0091 154.482 80.488 154.482C81.2548 154.482 81.7256 154.212 82.0334 153.918C82.3794 153.587 82.5466 153.195 82.5881 153.022C82.7972 152.15 83.6731 151.613 84.5445 151.823C85.4159 152.032 85.9528 152.908 85.7436 153.779C85.4169 155.14 83.9071 157.727 80.488 157.727C77.1206 157.727 75.4689 155.209 75.0483 153.895C74.7752 153.041 75.2457 152.128 76.0992 151.855Z" fill="#0C0C0C"/>
<path d="M58.745 155.023C58.745 157.114 57.0499 158.809 54.9589 158.809C52.8679 158.809 51.1729 157.114 51.1729 155.023C51.1729 152.932 52.8679 151.237 54.9589 151.237C57.0499 151.237 58.745 152.932 58.745 155.023Z" fill="#FFD84C"/>
<path d="M109.586 155.023C109.586 157.114 107.891 158.809 105.8 158.809C103.709 158.809 102.014 157.114 102.014 155.023C102.014 152.932 103.709 151.237 105.8 151.237C107.891 151.237 109.586 152.932 109.586 155.023Z" fill="#FFD84C"/>
<path d="M158.225 224.666C150.41 227.646 142.29 222.36 140.522 214.185C136.815 197.031 130.243 166.628 122.754 131.982C115.266 97.3357 108.694 66.9327 104.986 49.7788C103.219 41.6036 108.431 33.4361 116.779 32.9222C164.88 29.9611 209.246 62.4683 219.74 111.018C230.234 159.568 203.254 207.497 158.225 224.666Z" fill="#0057FF"/>
<path d="M174.178 119.713C174.178 117.622 175.873 115.927 177.964 115.927C180.055 115.927 181.75 117.622 181.75 119.713C181.75 121.804 180.055 123.499 177.964 123.499C175.873 123.499 174.178 121.804 174.178 119.713Z" fill="#0C0C0C"/>
<path d="M138.481 119.713C138.481 117.622 140.176 115.927 142.267 115.927C144.358 115.927 146.053 117.622 146.053 119.713C146.053 121.804 144.358 123.499 142.267 123.499C140.176 123.499 138.481 121.804 138.481 119.713Z" fill="#0C0C0C"/>
<path fill-rule="evenodd" clip-rule="evenodd" d="M164.396 113.145C163.542 113.418 162.629 112.948 162.356 112.094C162.2 111.606 161.486 110.518 160.007 110.518C159.24 110.518 158.77 110.789 158.462 111.083C158.116 111.413 157.949 111.806 157.907 111.979C157.698 112.85 156.822 113.387 155.951 113.178C155.079 112.969 154.542 112.093 154.751 111.221C155.078 109.86 156.588 107.273 160.007 107.273C163.374 107.273 165.026 109.791 165.447 111.105C165.72 111.959 165.249 112.872 164.396 113.145Z" fill="#0C0C0C"/>
<path d="M181.75 109.977C181.75 107.886 183.445 106.191 185.536 106.191C187.627 106.191 189.322 107.886 189.322 109.977C189.322 112.068 187.627 113.763 185.536 113.763C183.445 113.763 181.75 112.068 181.75 109.977Z" fill="#FFB7D5"/>
<path d="M130.908 109.977C130.908 107.886 132.603 106.191 134.694 106.191C136.785 106.191 138.48 107.886 138.48 109.977C138.48 112.068 136.785 113.763 134.694 113.763C132.603 113.763 130.908 112.068 130.908 109.977Z" fill="#FFB7D5"/>
<path fill-rule="evenodd" clip-rule="evenodd" d="M121.878 0C121.606 0 121.385 0.233816 121.385 0.522242V8.13963L116.298 2.75339C116.105 2.54945 115.793 2.54945 115.6 2.75339C115.408 2.95734 115.408 3.28801 115.6 3.49195L120.687 8.87811H113.493C113.221 8.87811 113 9.11193 113 9.40035C113 9.68878 113.221 9.92259 113.493 9.92259H120.687L115.6 15.3088C115.408 15.5128 115.408 15.8434 115.6 16.0474C115.793 16.2513 116.105 16.2513 116.298 16.0474L121.385 10.6611V18.2785C121.385 18.5669 121.606 18.8007 121.878 18.8007C122.151 18.8007 122.371 18.5669 122.371 18.2785V10.6612L127.458 16.0475C127.651 16.2514 127.963 16.2514 128.156 16.0475C128.349 15.8436 128.349 15.5129 128.156 15.3089L123.069 9.9226H130.263C130.535 9.9226 130.756 9.68878 130.756 9.40035C130.756 9.11193 130.535 8.87811 130.263 8.87811H123.069L128.156 3.49185C128.348 3.2879 128.348 2.95723 128.156 2.75328C127.963 2.54934 127.651 2.54934 127.458 2.75328L122.371 8.1395V0.522242C122.371 0.233816 122.151 0 121.878 0Z" fill="#0057FF"/>
<path fill-rule="evenodd" clip-rule="evenodd" d="M119.878 246C119.606 246 119.385 246.234 119.385 246.522V254.14L114.298 248.753C114.105 248.549 113.793 248.549 113.6 248.753C113.408 248.957 113.408 249.288 113.6 249.492L118.687 254.878H111.493C111.221 254.878 111 255.112 111 255.4C111 255.689 111.221 255.923 111.493 255.923H118.687L113.6 261.309C113.408 261.513 113.408 261.843 113.6 262.047C113.793 262.251 114.105 262.251 114.298 262.047L119.385 256.661V264.278C119.385 264.567 119.606 264.801 119.878 264.801C120.151 264.801 120.371 264.567 120.371 264.278V256.661L125.458 262.048C125.651 262.251 125.963 262.251 126.156 262.048C126.349 261.844 126.349 261.513 126.156 261.309L121.069 255.923H128.263C128.535 255.923 128.756 255.689 128.756 255.4C128.756 255.112 128.535 254.878 128.263 254.878H121.069L126.156 249.492C126.348 249.288 126.348 248.957 126.156 248.753C125.963 248.549 125.651 248.549 125.458 248.753L120.371 254.14V246.522C120.371 246.234 120.151 246 119.878 246Z" fill="#FFB7D5"/>
</svg>
